<svg xmlns="http://www.w3.org/2000/svg" viewBox="0 0 256 256" role="img" aria-label="Waterpolo Hub logo">
  <defs>
    <linearGradient id="wp-bg" x1="0" y1="0" x2="1" y2="1">
      <stop offset="0%" stop-color="#10263a"/>
      <stop offset="100%" stop-color="#1d5371"/>
    </linearGradient>
    <linearGradient id="wp-wave" x1="0" y1="0" x2="1" y2="1">
      <stop offset="0%" stop-color="#4be4ff"/>
      <stop offset="100%" stop-color="#1ac8ed"/>
    </linearGradient>
  </defs>
  <rect x="8" y="8" width="240" height="240" rx="56" fill="url(#wp-bg)"/>
  <path d="M58 56h140" stroke="#ffffff" stroke-opacity=".2" stroke-width="10" stroke-linecap="round"/>
  <circle cx="128" cy="128" r="72" fill="none" stroke="#f3fbff" stroke-width="14"/>
  <path d="M74 144c18-16 36-16 54 0s36 16 54 0 36-16 54 0" fill="none" stroke="url(#wp-wave)" stroke-width="14" stroke-linecap="round"/>
  <path d="M82 174c15-12 30-12 45 0s30 12 45 0 30-12 45 0" fill="none" stroke="#e5faff" stroke-width="10" stroke-linecap="round"/>
  <circle cx="182" cy="96" r="20" fill="#ffffff"/>
  <path d="M162 96h40M182 76c8 3 13 11 13 20s-5 17-13 20M182 76c-8 3-13 11-13 20s5 17 13 20" fill="none" stroke="#1d5371" stroke-width="3.6" stroke-linecap="round"/>
</svg>
